{"title":"Muppets from Space 1999 DVDrip English Klam","uid":7034486,"size":1655627966,"categoryP":"video","categoryS":"movies","magnet":"?xt=urn:btih:f6359b9dda37ef91d9da5484e5dc338c68c360d2&amp;dn=Muppets+from+Space+1999+DVDrip+English+Klam&amp;tr=udp%3A%2F%2Ftracker.openbittorrent.com%3A80&amp;tr=udp%3A%2F%2Fopen.demonii.com%3A1337&amp;tr=udp%3A%2F%2Ftracker.coppersurfer.tk%3A6969&amp;tr=udp%3A%2F%2Fexodus.desync.com%3A6969","seeders":4,"leechers":0,"uploader":"Klambake","files":-1,"time":1329331904,"description":"With the vorices of: Dave Goelz, Steve Whitmire and Bill Barretta\n\nGonzo voelt zich eenzaam zonder familie en gaat op zoek naar zijn verleden. Via zijn ontbijtgranen ontvangt hij vreemde berichten. Zo ontdekt hij dat zijn familieleden ruimtewezens van een verre planeet zijn. In Miss Piggy's talkshow &quot;UFOmania&quot; vertelt Gonzo dat hij het levende bewijs is dat we niet alleen zijn in dit universum. Deze boodschap is voldoende om een team van paranoÃƒÂ¯de overheidsmensen achter zich aan te krijgen, met K. Edgar Singer op kop. Uiteindelijk moet Gonzo niet alleen zien te ontkomen aan Singer, hij moet ook een belangrijke keuze maken: vervoegt hij zijn familieleden die hij nog nooit heeft gezien, of blijft hij bij zijn vrienden die hij al zijn hele leven lang kent en liefheeft?\n\nGonzo is contacted by his alien family through his breakfast cereal. He is kidnapped and it's up to Kermit and the gang to rescue Gonzo and help reunite him with his long-lost family. \n\n------------------------ Dutch Friends ------------------------\n---------------------------------------------------------------\n- Bezoek ook eens mijn vrienden op: &lt;a href=&quot; http://www.Film-Test.nl&quot; rel=&quot;nofollow&quot; target=&quot;_NEW&quot;&gt; http://www.Film-Test.nl&lt;/a&gt; --\n----- voor mijn Nederlandse Sync. ondertitels ---- en meer ----\n------- http://www.Film-Test.nl ---- voor Films en meer -------\n---------------------------------------------------------------\n\nGeneral:\n\nComplete name                    : Muppets from Space\\Muppets from Space.avi\nFormat                           : AVI\nFormat/Info                      : Audio Video Interleave\nFile size                        : 1.54 GiB\nDuration                         : 1h 24mn\nOverall bit rate                 : 2 606 Kbps\n\nVideo:\n\nFormat                           : MPEG-4 Visual\nFormat profile                   : Simple@L3\nFormat settings, BVOP            : No\nFormat settings, QPel            : No\nFormat settings, GMC             : No warppoints\nFormat settings, Matrix          : Default (H.263)\nCodec ID                         : XVID\nCodec ID/Hint                    : XviD\nDuration                         : 1h 24mn\nBit rate                         : 2 147 Kbps\nWidth                            : 652 pixels\nHeight                           : 352 pixels\nDisplay aspect ratio             : 1.852\nFrame rate                       : 25.000 fps\nColor space                      : YUV\nChroma subsampling               : 4:2:0\nBit depth                        : 8 bits\nScan type                        : Progressive\nCompression mode                 : Lossy\nBits/(Pixel*Frame)               : 0.374\nStream size                      : 1.27 GiB (82%)\nWriting library                  : XviD 1.1.2 (UTC 2006-11-01)\n\nAudio:\n\nFormat                           : AC-3\nFormat/Info                      : Audio Coding 3\nMode extension                   : CM (complete main)\nCodec ID                         : 2000\nDuration                         : 1h 24mn\nBit rate mode                    : Constant\nBit rate                         : 448 Kbps\nChannel(s)                       : 6 channels\nChannel positions                : Front: L C R, Side: L R, LFE\nSampling rate                    : 48.0 KHz\nBit depth                        : 16 bits\nCompression mode                 : Lossy\nStream size                      : 271 MiB (17%)\nAlignment                        : Aligned on interleaves\nInterleave, duration             : 32 ms (0.80 video frame)\nInterleave, preload duration     : 32 ms\n\n","torrent":{"xt":"urn:btih:f6359b9dda37ef91d9da5484e5dc338c68c360d2","amp;dn":"Muppets+from+Space+1999+DVDrip+English+Klam","amp;tr":["udp%3A%2F%2Ftracker.openbittorrent.com%3A80","udp%3A%2F%2Fopen.demonii.com%3A1337","udp%3A%2F%2Ftracker.coppersurfer.tk%3A6969","udp%3A%2F%2Fexodus.desync.com%3A6969"],"infoHash":"f6359b9dda37ef91d9da5484e5dc338c68c360d2","infoHashBuffer":{"type":"Buffer","data":[246,53,155,157,218,55,239,145,217,218,84,132,229,220,51,140,104,195,96,210]},"announce":[],"urlList":[]}}